<svg width="9" height="9" viewBox="0 0 9 9" fill="none" xmlns="http://www.w3.org/2000/svg">
<g clip-path="url(#clip0_177_2172)">
<path d="M1.875 0V1.5H2.625V0H1.875ZM6.375 0V1.5H7.125V0H6.375ZM0.375 1.125C0.168457 1.125 0 1.29346 0 1.5V2.625C0 2.83154 0.168457 3 0.375 3V9H8.625V3C8.83154 3 9 2.83154 9 2.625V1.5C9 1.29346 8.83154 1.125 8.625 1.125H7.5V1.875H6V1.125H3V1.875H1.5V1.125H0.375ZM1.125 3H7.875V8.25H1.125V3ZM1.875 3.75V4.5H2.625V3.75H1.875ZM3.375 3.75V4.5H4.125V3.75H3.375ZM4.875 3.75V4.5H5.625V3.75H4.875ZM6.375 3.75V4.5H7.125V3.75H6.375ZM1.875 5.25V6H2.625V5.25H1.875ZM3.375 5.25V6H4.125V5.25H3.375ZM4.875 5.25V6H5.625V5.25H4.875ZM6.375 5.25V6H7.125V5.25H6.375ZM1.875 6.75V7.5H2.625V6.75H1.875ZM3.375 6.75V7.5H4.125V6.75H3.375ZM4.875 6.75V7.5H5.625V6.75H4.875ZM6.375 6.75V7.5H7.125V6.75H6.375Z" fill="white"/>
</g>
<defs>
<clipPath id="clip0_177_2172">
<rect width="9" height="9" fill="white"/>
</clipPath>
</defs>
</svg>
