<svg width="42" height="42" viewBox="0 0 42 42" fill="none" xmlns="http://www.w3.org/2000/svg">
<path d="M1 0C0.45 0 0 0.45 0 1V11C0 11.55 0.45 12 1 12H41C41.55 12 42 11.55 42 11V1C42 0.45 41.55 0 41 0H1ZM6 5C6.55 5 7 5.45 7 6C7 6.55 6.55 7 6 7C5.45 7 5 6.55 5 6C5 5.45 5.45 5 6 5ZM10 5C10.55 5 11 5.45 11 6C11 6.55 10.55 7 10 7C9.45 7 9 6.55 9 6C9 5.45 9.45 5 10 5ZM14 5C14.55 5 15 5.45 15 6C15 6.55 14.55 7 14 7C13.45 7 13 6.55 13 6C13 5.45 13.45 5 14 5ZM0 15V41C2.65169e-05 41.2652 0.105392 41.5195 0.292922 41.7071C0.480453 41.8946 0.734792 42 1 42H41C41.2652 42 41.5195 41.8946 41.7071 41.7071C41.8946 41.5195 42 41.2652 42 41V15H40V40H2V15H0ZM6 15C5.448 15 5 15.447 5 16V36C5 36.553 5.448 37 6 37H19C19.552 37 20 36.553 20 36V16C20 15.447 19.552 15 19 15H6ZM23 15V17H37V15H23ZM23 20V22H37V20H23ZM23 25V27H37V25H23ZM23 30V32H37V30H23ZM23 35V37H37V35H23Z" fill="url(#paint0_linear_177_1793)"/>
<defs>
<linearGradient id="paint0_linear_177_1793" x1="47.3846" y1="1.20109e-06" x2="-0.0186931" y2="41.9976" gradientUnits="userSpaceOnUse">
<stop offset="0.25" stop-color="#3B768F"/>
<stop offset="0.536458" stop-color="#3EC6FF"/>
<stop offset="0.817708" stop-color="#3B768F"/>
</linearGradient>
</defs>
</svg>
