<svg width="40" height="50" viewBox="0 0 40 50" fill="none" xmlns="http://www.w3.org/2000/svg">
<path d="M12 0C11.4492 0 11 0.449219 11 1V9C11 9.55078 11.4492 10 12 10H28C28.5547 10 29 9.55078 29 9V1C29 0.449219 28.5547 0 28 0H12ZM3 2C1.34766 2 0 3.34766 0 5V47C0 48.6523 1.34766 50 3 50H37C38.6523 50 40 48.6523 40 47V5C40 3.34766 38.6523 2 37 2H31V6H36V46H4V6H9V2H3ZM6 8V44H34V8H31V9C31 10.6523 29.6523 12 28 12H12C10.3477 12 9 10.6523 9 9V8H6ZM10 17H18V25H10V17ZM12 19V23H16V19H12ZM21 20H30V22H21V20ZM10 30H18V38H10V30ZM12 32V36H16V32H12ZM13 33H15V35H13V33ZM21 33H30V35H21V33Z" fill="url(#paint0_linear_177_1799)"/>
<defs>
<linearGradient id="paint0_linear_177_1799" x1="45.1282" y1="1.42987e-06" x2="-8.50923" y2="38.0167" gradientUnits="userSpaceOnUse">
<stop offset="0.25" stop-color="#3B768F"/>
<stop offset="0.536458" stop-color="#3EC6FF"/>
<stop offset="0.817708" stop-color="#3B768F"/>
</linearGradient>
</defs>
</svg>
